# xmcd
#
# Track frame offsets: 
#        150
#        13364
#        26318
#        42130
#        53969
#        70610
#        86608
#        100594
#        116144
#        131794
#        143964
#        155254
#        170537
#        183669
#        198255
#        215844
#
# Disc length: 3072 seconds
#
# Revision: 0
# Processed by: cddbd v1.5.2PL0 Copyright (c) Steve Scherf et al.
# Submitted via: ExactAudioCopy v1.0b4
#
DISCID=e30bfe10
DTITLE=Andy Lindquist - Voodoo-A-Do-Do
DYEAR=2015
DGENRE=Blues Rock
TTITLE0=Voodoo-A-Do-Do
TTITLE1=Chains Of Oppression
TTITLE2=Love You All My Days
TTITLE3=Baby's Cross With Me
TTITLE4=It's Like A Slow Train
TTITLE5=Little Earth Angel (Feat. Palmer Harbison)
TTITLE6=Just Do Your Thang
TTITLE7=Veins
TTITLE8=The Lash For The Gun
TTITLE9=North Of The Bayou
TTITLE10=Hot Box Rooster
TTITLE11=Mere Freedom
TTITLE12=The Blind Eyes Of The Rich Man
TTITLE13=Pablo Gots Some Blues
TTITLE14=Karma Is A Heartbreaker
TTITLE15=Get Ready For The Rain
EXTD=
EXTT0=
EXTT1=
EXTT2=
EXTT3=
EXTT4=
EXTT5=
EXTT6=
EXTT7=
EXTT8=
EXTT9=
EXTT10=
EXTT11=
EXTT12=
EXTT13=
EXTT14=
EXTT15=
PLAYORDER=
